<svg xmlns="http://www.w3.org/2000/svg" width="17" height="20" viewBox="0 0 17 20" fill="none">
  <path fill-rule="evenodd" clip-rule="evenodd" d="M13.3259 2.83879L16.014 4.42002C16.2334 4.54908 16.4224 4.71637 16.5745 4.91062L8.49953 9.36639L0.425193 4.91098C0.577354 4.71658 0.766431 4.54916 0.98596 4.42002L3.67406 2.83879C3.69722 2.85773 3.72253 2.87491 3.7499 2.89L8.24986 5.37012C8.40463 5.45542 8.59537 5.45542 8.75014 5.37012L13.2501 2.89C13.2775 2.87491 13.3028 2.85773 13.3259 2.83879ZM12.3673 2.27488L9.51404 0.596494C8.88814 0.228319 8.11186 0.228319 7.48596 0.596494L4.6327 2.27488L8.5 4.40631L12.3673 2.27488ZM0.030583 5.79523C0.010409 5.90923 0 6.02583 0 6.14389V9.63252L4.25018 11.975C4.4048 12.0602 4.50004 12.2176 4.50004 12.3879V17.3386C4.50004 17.4348 4.47018 17.5244 4.41882 17.5993L7.48596 19.4035C7.65196 19.5012 7.82853 19.5729 8.01007 19.6187C8.00347 19.5878 8 19.5558 8 19.5231V10.1927L0.030583 5.79523ZM8.98993 19.6188C9.17147 19.5729 9.34804 19.5012 9.51404 19.4035L12.5812 17.5993C12.5298 17.5244 12.5 17.4348 12.5 17.3386V12.3879C12.5 12.2176 12.5952 12.0602 12.7498 11.975L17 9.63252V6.14389C17 6.02566 16.9896 5.90891 16.9693 5.79476L9 10.1922V19.5231C9 19.5558 8.99653 19.5878 8.98993 19.6188ZM17 10.7342L13.5 12.6632V17.0588L16.014 15.58C16.6249 15.2206 17 14.5648 17 13.8561V10.7342ZM3.50004 17.0588V12.6632L0 10.7342V13.8561C0 14.5648 0.375083 15.2206 0.98596 15.58L3.50004 17.0588Z" fill="#999999"/>
</svg>