<svg width="31" height="32" viewBox="0 0 31 32" fill="none" xmlns="http://www.w3.org/2000/svg">
<path d="M10.8561 9.24003C10.2027 8.58666 9.14341 8.58666 8.49003 9.24003C7.83666 9.89341 7.83666 10.9527 8.49003 11.6061L12.8839 16L8.49008 20.3939C7.8367 21.0473 7.8367 22.1066 8.49008 22.76C9.14346 23.4133 10.2028 23.4133 10.8562 22.76L15.25 18.3661L19.6438 22.7599C20.2972 23.4133 21.3565 23.4133 22.0099 22.7599C22.6633 22.1065 22.6633 21.0472 22.0099 20.3938L17.6161 16L22.01 11.6062C22.6633 10.9528 22.6633 9.89346 22.01 9.24008C21.3566 8.5867 20.2973 8.5867 19.6439 9.24008L15.25 13.6339L10.8561 9.24003Z" fill="#666666"/>
</svg>
