<svg width="50" height="50" viewBox="0 0 50 50" fill="none" xmlns="http://www.w3.org/2000/svg">
<path d="M25.0002 45.8327C36.5061 45.8327 45.8335 36.5053 45.8335 24.9993C45.8335 13.4934 36.5061 4.16602 25.0002 4.16602C13.4942 4.16602 4.16683 13.4934 4.16683 24.9993C4.16683 28.332 4.94936 31.4819 6.34071 34.2753C6.71045 35.0177 6.83352 35.8662 6.61916 36.6673L5.37831 41.3049C4.83965 43.3181 6.68144 45.1599 8.69464 44.6212L13.3322 43.3804C14.1334 43.166 14.9818 43.2891 15.7242 43.6588C18.5176 45.0501 21.6675 45.8327 25.0002 45.8327Z" stroke="#237DF7" strokeWidth="1.5"/>
<path d="M16.6665 21.875H33.3332" stroke="#237DF7" strokeWidth="1.5" strokeLinecap="round"/>
<path d="M16.6665 29.166H28.1248" stroke="#237DF7" strokeWidth="1.5" strokeLinecap="round"/>
</svg>
