<svg width="20" height="20" viewBox="0 0 20 20" fill="none" xmlns="http://www.w3.org/2000/svg">
<path opacity="0.5" d="M3.3335 18.334H16.6668" stroke="#B3B3B3" strokeWidth="1.5" strokeLinecap="round"/>
<path d="M12.1915 2.43387L11.5735 3.05179L5.89271 8.73261C5.50794 9.11739 5.31555 9.30978 5.15009 9.52191C4.95492 9.77214 4.78759 10.0429 4.65106 10.3294C4.53532 10.5722 4.44928 10.8303 4.2772 11.3466L3.54803 13.5341L3.3698 14.0688C3.28511 14.3228 3.35123 14.6029 3.54058 14.7923C3.72993 14.9816 4.01002 15.0477 4.26406 14.963L4.79878 14.7848L6.98628 14.0556L6.98631 14.0556C7.50252 13.8836 7.76063 13.7975 8.00348 13.6818C8.28996 13.5453 8.56071 13.3779 8.81094 13.1827C9.02307 13.0173 9.21545 12.8249 9.60022 12.4401L9.60023 12.4401L15.2811 6.75931L15.899 6.14139C16.9228 5.11758 16.9228 3.45767 15.899 2.43387C14.8752 1.41006 13.2153 1.41006 12.1915 2.43387Z" stroke="#B3B3B3" strokeWidth="1.5"/>
<path opacity="0.5" d="M11.5734 3.05273C11.5734 3.05273 11.6506 4.36581 12.8092 5.52441C13.9678 6.68301 15.2809 6.76025 15.2809 6.76025M4.79859 14.7858L3.54785 13.535" stroke="#B3B3B3" strokeWidth="1.5"/>
</svg>
