<svg xmlns="http://www.w3.org/2000/svg" width="24" height="24" viewBox="0 0 24 24" fill="none">
  <path fill-rule="evenodd" clip-rule="evenodd" d="M8.08185 2H15.4584C16.367 2 17.1614 2.61239 17.3926 3.49101L21.34 18.491C21.6737 19.7592 20.7171 21 19.4058 21H4.52922C3.23832 21 2.28555 19.7952 2.58306 18.5391L6.13569 3.53907C6.34934 2.63701 7.15485 2 8.08185 2ZM12.0002 5C12.5525 5 13.0002 5.44772 13.0002 6V8C13.0002 8.55228 12.5525 9 12.0002 9C11.4479 9 11.0002 8.55228 11.0002 8V6C11.0002 5.44772 11.4479 5 12.0002 5ZM12.0002 10C12.5525 10 13.0002 10.4477 13.0002 11V13C13.0002 13.5523 12.5525 14 12.0002 14C11.4479 14 11.0002 13.5523 11.0002 13V11C11.0002 10.4477 11.4479 10 12.0002 10ZM12.0002 15C12.5525 15 13.0002 15.4477 13.0002 16V18C13.0002 18.5523 12.5525 19 12.0002 19C11.4479 19 11.0002 18.5523 11.0002 18V16C11.0002 15.4477 11.4479 15 12.0002 15Z" fill="#999999"/>
</svg>